<svg width="138" height="221" viewBox="0 0 138 221" fill="none" xmlns="http://www.w3.org/2000/svg">
<path d="M130.896 1.36C134.064 1.36 136.643 3.944 136.643 7.11733V213.883C136.643 217.056 134.064 219.64 130.896 219.64H7.10361C3.93639 219.64 1.35738 217.056 1.35738 213.883V7.11733C1.35738 3.944 3.93639 1.36 7.10361 1.36H130.896ZM130.896 0H7.10361C3.18984 0 0 3.196 0 7.11733V213.883C0 217.804 3.18984 221 7.10361 221H130.896C134.81 221 138 217.804 138 213.883V7.11733C138 3.196 134.81 0 130.896 0Z" fill="white"/>
<path d="M113.59 34.5213V86.5867H26.2879V34.5213H113.59ZM114.947 33.1613H24.9305V87.9467H114.947V33.1613V33.1613Z" fill="white"/>
<path d="M113.59 93.4093V145.475H26.2879V93.4093H113.59ZM114.947 92.0493H24.9305V146.835H114.947V92.0493V92.0493Z" fill="white"/>
<path d="M113.59 153.045V205.111H26.2879V153.045H113.59ZM114.947 151.685H24.9305V206.471H114.947V151.685V151.685Z" fill="white"/>
</svg>
