<svg width="149" height="238" viewBox="0 0 149 238" fill="none" xmlns="http://www.w3.org/2000/svg">
<path d="M136.396 1.46462C142.527 1.46462 147.534 6.46872 147.534 12.5957V225.404C147.534 228.651 146.118 231.751 143.626 233.875C141.599 235.583 139.034 236.535 136.396 236.535H12.6039C10.088 236.535 7.69426 235.705 5.71574 234.168C3.02885 232.044 1.46557 228.846 1.46557 225.404V12.5957C1.46557 6.46872 6.47295 1.46462 12.6039 1.46462H136.396ZM136.396 0H12.6039C5.64246 0 0 5.63877 0 12.5957V225.404C0 229.432 1.88082 232.996 4.81197 235.315C6.96148 236.999 9.64836 238 12.6039 238H136.396C139.523 238 142.38 236.853 144.579 234.998C147.29 232.679 149 229.261 149 225.429V12.5957C149 5.63877 143.358 0 136.396 0Z" fill="white"/>
<path d="M72.3017 199.163V236.535H12.6039C10.3079 236.535 8.13395 235.852 6.27756 234.583V199.163H72.3017ZM73.7672 197.699H4.81198V235.315C6.96149 236.999 9.64837 238 12.6039 238H73.7672V197.699Z" fill="white"/>
<path d="M143.113 199.163V234.29C141.184 235.754 138.814 236.535 136.396 236.535H77.1136V199.163H143.113ZM144.579 197.699H75.648V238H136.396C139.523 238 142.381 236.853 144.579 234.998V197.699Z" fill="white"/>
<path d="M72.3017 63.2714V102.181H6.27756V63.2714H72.3017ZM73.7672 61.8068H4.81198V103.646H73.7672V61.8068Z" fill="white"/>
<path d="M72.3017 108.259V147.169H6.27756V108.259H72.3017ZM73.7672 106.795H4.81198V148.634H73.7672V106.795Z" fill="white"/>
<path d="M72.3017 153.809V192.719H6.27756V153.809H72.3017ZM73.7672 152.344H4.81198V194.184H73.7672V152.344Z" fill="white"/>
<path d="M143.113 63.2714V102.181H77.1136V63.2714H143.113ZM144.579 61.8068H75.648V103.646H144.579V61.8068Z" fill="white"/>
<path d="M143.113 108.259V147.169H77.1136V108.259H143.113ZM144.579 106.795H75.648V148.634H144.579V106.795Z" fill="white"/>
<path d="M143.113 153.809V192.719H77.1136V153.809H143.113ZM144.579 152.344H75.648V194.184H144.579V152.344Z" fill="white"/>
</svg>
